<svg width="2233" height="624" viewBox="0 0 2233 624" fill="none" xmlns="http://www.w3.org/2000/svg">
<path fill-rule="evenodd" clip-rule="evenodd" d="M112.46 327.962C112.46 365.159 97.726 387.623 51.6315 386.676H33.8369V269.015H52.0724C91.1503 269.028 112.46 287.017 112.46 327.962ZM146.596 327.742C146.596 272.062 115.015 243.283 56.0671 243.283H0.400879V412.434H56.0671C120.397 412.434 146.596 382.954 146.596 327.742ZM262.144 291.232C262.144 305.511 253.039 312.749 235.491 312.749H202.029V269.015H235.011C251.638 269.028 262.144 277.899 262.144 291.232ZM298.42 383.628C303.803 371.242 303.323 356.288 296.799 345.03C289.302 332.385 278.304 328.429 264.725 324.927C282.286 319.052 296.332 305.978 295.619 285.382C294.464 252.841 264.05 243.736 235.037 243.736H170.006V412.421H231.068C246.269 412.421 260.302 411.02 271.287 407.493C284.153 403.057 292.804 395.353 298.42 383.628ZM268.006 361.658C268.006 375.924 260.522 387.377 237.138 387.377H202.042V337.793L238.292 338.027C260.056 337.793 268.006 350.659 268.006 361.658ZM527.22 412.434H491.436L486.248 368.22C483.94 354.641 484.627 343.643 458.428 343.643L428.027 343.876V412.434H394.565V243.516H462.656C495.625 243.749 524.872 253.568 525.573 287.017C526.26 309.714 512.253 323.76 490.256 329.142C504.523 331.944 515.301 337.08 519.01 353.24L527.22 412.434ZM489.089 292.178C489.089 278.846 479.478 269.028 462.189 269.028H427.794V318.624H455.873C473.875 318.624 489.322 313.449 489.089 292.178ZM661.275 360.724L576.129 360.957C576.349 380.139 583.132 395.82 604.416 395.82C617.035 395.82 627.813 387.156 627.813 373.836H658.668C656.801 406.818 630.135 415.936 599.941 415.716C562.082 414.535 544.288 388.103 544.288 352.773C544.288 323.073 559.722 291.465 604.169 291.465C648.643 291.465 663.843 325.641 661.275 360.724ZM627.826 341.075C628.527 323.993 620.096 311.361 603.249 311.361C585.713 311.361 578.23 325.641 577.27 341.075H627.826ZM793.424 412.434H765.604L764.437 395.353C757.187 410.554 738.471 417.804 722.103 416.17C699.173 415.456 683.505 401.877 683.505 379.439C683.505 361.891 693.09 350.906 705.489 345.043C722.57 337.093 745.501 338.273 762.569 337.326C764.19 317.664 756.486 309.714 739.172 309.714C727.68 309.96 719.043 316.497 719.73 329.142H688.628C689.095 301.776 709.678 292.658 738.004 292.166C767.692 291.919 793.411 303.851 793.411 327.729L793.424 412.434ZM762.777 355.575C746.642 355.575 715.541 352.994 715.294 377.558C715.294 388.79 722.324 394.627 734.256 395.573C761.869 395.12 763.503 374.977 762.777 355.575ZM823.631 243.516H855.925V412.434H823.631V243.516ZM952.745 243.516H1064.1V269.481H985.052V312.528H1059.46V337.56H985.052V386.689H1067.4V412.434H952.745V243.516ZM1192.09 362.125C1197.22 372.423 1197.03 385.989 1190.7 395.353C1179.68 412.201 1155.83 416.403 1137.33 415.936C1111.16 414.289 1087.76 407.519 1088.91 376.171H1120.74C1120.51 389.75 1128.93 394.653 1141.1 395.133C1152.78 395.133 1164.49 391.138 1164.49 380.373C1164.49 371.722 1156.31 367.987 1145.8 365.639C1133.84 363.058 1125.2 361.904 1111.88 356.509C1101.12 351.372 1090.57 342.722 1090.57 326.354C1090.57 312.762 1101.12 302.489 1114.89 296.874C1124.24 292.879 1135.71 291.738 1145.54 291.738C1167.78 291.738 1191.87 299.455 1190.48 327.521H1160.51C1160.51 323.319 1159.57 318.637 1156.05 315.822C1149.51 309.986 1129.39 309.273 1123.06 318.857C1116.05 335.238 1137.84 336.418 1161.92 342.955C1177.11 346.457 1187.39 352.76 1192.09 362.125ZM1230.47 296.16V277.665L1261.57 261.285V296.147H1291.28V318.818H1261.57V375.224C1261.57 386.676 1265.55 393.239 1277.25 393.693C1281.68 393.693 1285.65 394.147 1291.51 392.526V412.642C1276.29 414.743 1258.77 418.75 1244.24 411.02C1233.27 405.158 1230.47 394.873 1230.47 378.492V318.818H1205.43V296.147L1230.47 296.16ZM1419.01 412.434H1391.17L1390.01 395.353C1382.76 410.554 1364.02 417.804 1347.67 416.17C1324.74 415.456 1309.06 401.877 1309.06 379.439C1309.06 361.891 1318.63 350.906 1331.07 345.043C1348.09 337.093 1371.05 338.273 1388.11 337.326C1389.76 317.664 1382.03 309.714 1364.73 309.714C1353.25 309.96 1344.59 316.497 1345.3 329.142H1314.2C1314.65 301.776 1335.25 292.658 1363.57 292.166C1393.26 291.919 1418.99 303.851 1418.99 327.729L1419.01 412.434ZM1388.35 355.575C1372.21 355.575 1341.1 352.994 1340.88 377.558C1340.88 388.79 1347.89 394.627 1359.83 395.573C1387.44 395.12 1389.09 374.977 1388.35 355.575ZM1459.25 296.16V277.665L1490.35 261.285V296.147H1520.07V318.818H1490.35V375.224C1490.35 386.676 1494.34 393.239 1506.03 393.693C1510.5 393.693 1514.44 394.147 1520.3 392.526V412.642C1505.08 414.743 1487.55 418.75 1473.03 411.02C1462.03 405.158 1459.25 394.873 1459.25 378.492V318.818H1434.2V296.147L1459.25 296.16ZM1652.71 360.724L1567.58 360.957C1567.81 380.139 1574.59 395.82 1595.88 395.82C1608.5 395.82 1619.29 387.156 1619.29 373.836H1650.17C1648.29 406.818 1621.62 415.936 1591.43 415.716C1553.56 414.535 1535.77 388.103 1535.77 352.773C1535.77 323.073 1551.2 291.465 1595.66 291.465C1640.12 291.465 1655.29 325.641 1652.71 360.724ZM1619.27 341.075C1619.99 323.993 1611.54 311.361 1594.7 311.361C1577.16 311.361 1569.66 325.641 1568.7 341.075H1619.27ZM1878.59 58.0743H2175.57V355.043H1878.59V58.0743ZM1821.47 412.175H2232.7V0.942505H1821.47V412.175ZM2143.59 98.6307H2070.51L1910.59 313.955H1983.11L2143.59 98.6307ZM66.5856 548.682C66.5856 570.095 58.4406 583.051 32.8901 582.52H23.0591V514.701H33.1495C54.809 514.714 66.5856 525.09 66.5856 548.682ZM85.5085 548.539C85.5085 516.439 68.0252 499.863 35.3544 499.863H4.53824V597.357H35.3544C71.0083 597.357 85.5085 580.354 85.5085 548.539ZM163.755 567.553L116.61 567.695C116.727 578.758 120.488 587.785 132.277 587.785C139.281 587.785 145.247 582.792 145.247 575.114H162.341C161.304 594.128 146.531 599.38 129.826 599.225C108.828 598.55 98.9841 583.337 98.9841 562.961C98.9841 545.841 107.544 527.632 132.161 527.632C156.777 527.645 165.182 547.333 163.755 567.553ZM145.234 556.23C145.61 546.386 140.967 539.11 131.629 539.11C121.902 539.11 117.764 547.346 117.245 556.23H145.234ZM241.094 597.357H223.481L223.364 586.294C220.381 595.061 212.223 599.523 202.107 599.523C190.2 599.523 178.917 591.962 178.8 573.882V530.07H196.672V571.327C196.556 581.041 200.174 586.424 208.968 586.566C216.879 586.566 223.364 581.858 223.364 568.772V530.083H241.107L241.094 597.357ZM268.564 530.329V519.681L285.788 510.239V530.329H302.259V543.416H285.788V575.918C285.788 582.533 288.005 586.307 294.464 586.566C296.929 586.566 299.12 586.839 302.376 585.892V597.487C293.959 598.719 284.218 601.002 276.203 596.553C270.12 593.168 268.551 587.241 268.551 577.812V543.429H254.699V530.342L268.564 530.329ZM371.557 568.357C374.41 574.284 374.28 582.118 370.804 587.513C364.696 597.214 351.479 599.653 341.259 599.38C326.746 598.421 313.763 594.53 314.425 576.437H332.051C331.921 584.271 336.603 587.098 343.334 587.37C349.806 587.37 356.278 585.075 356.278 578.888C356.278 573.882 351.752 571.742 345.915 570.393C339.314 568.901 334.528 568.227 327.122 565.127C321.182 562.157 315.333 557.19 315.333 547.748C315.333 539.914 321.169 533.974 328.808 530.744C333.983 528.436 340.338 527.774 345.773 527.774C358.094 527.774 371.44 532.21 370.662 548.409H354.073C354.073 545.971 353.555 543.273 351.609 541.652C347.978 538.293 336.85 537.891 333.348 543.416C329.457 552.871 341.506 553.532 354.852 557.293C363.269 559.317 368.963 562.961 371.557 568.357ZM419.389 527.502C433.5 527.502 448.143 534.259 448.143 552.715L430.79 552.573C430.79 543.935 426.263 538.682 417.716 539.097C415.511 539.24 413.177 540.031 411.231 541.107C405.901 544.337 404.24 553.377 404.24 562.417C404.24 572.001 406.432 581.288 410.453 584.673C413.164 587.37 417.949 588.187 422.1 587.37C428.974 586.151 431.036 579.148 431.166 573.078L448.143 572.935C448.39 592.208 433.228 599.51 417.444 599.212C396.329 598.408 386.602 584.115 386.602 562.948C386.602 541.522 398.391 527.502 419.389 527.502ZM464.861 499.993H482.721V540.731C487.403 532.093 494.393 528.319 503.861 528.319C515.767 528.319 527.051 537.618 527.051 550.964V597.357H509.412V556.074C509.412 546.918 505.677 540.848 497.247 540.848C489.348 540.848 482.617 546.243 482.617 558.642V597.344H464.861V499.993ZM608.8 567.553L561.616 567.695C561.745 578.758 565.52 587.785 577.296 587.785C584.3 587.785 590.253 582.792 590.253 575.114H607.36C606.322 594.128 591.537 599.38 574.832 599.225C553.86 598.55 544.003 583.337 544.003 562.961C544.003 545.841 552.537 527.632 577.179 527.632C601.796 527.645 610.213 547.333 608.8 567.553ZM590.266 556.23C590.668 546.386 586.012 539.11 576.673 539.11C566.946 539.11 562.809 547.346 562.277 556.23H590.266ZM716.851 527.502C716.851 535.738 711.767 539.914 702.052 539.914H683.531V514.714H701.819C711.027 514.714 716.851 519.811 716.851 527.502ZM736.915 580.782C739.898 573.622 739.652 564.998 736.033 558.526C731.857 551.237 725.774 548.954 718.264 546.918C727.992 543.545 735.748 535.984 735.397 524.143C734.723 505.401 717.875 500.123 701.819 500.123H665.789V597.344H699.614C708.044 597.344 715.826 596.54 721.909 594.517C729.042 591.962 733.815 587.513 736.915 580.782ZM720.067 568.084C720.067 576.32 715.943 582.922 702.986 582.922H683.544V554.349L703.634 554.492C715.683 554.336 720.067 561.755 720.067 568.084ZM815.084 597.357H799.65L799.014 587.513C794.968 596.281 784.605 600.457 775.552 599.523C762.854 599.108 754.191 591.287 754.191 578.33C754.191 568.227 759.482 561.885 766.356 558.526C775.811 553.934 788.509 554.609 797.964 554.064C798.884 542.741 794.604 538.15 784.994 538.15C778.665 538.293 773.879 542.067 774.242 549.343H757.031C757.277 533.572 768.704 528.306 784.371 528.034C800.817 527.891 815.097 534.778 815.097 548.526L815.084 597.357ZM798.08 564.583C789.157 564.583 771.881 563.104 771.778 577.254C771.778 583.726 775.669 587.111 782.257 587.63C797.587 587.37 798.469 575.762 798.08 564.583ZM834.357 530.07H852.242V540.848C856.911 532.08 865.458 528.306 875.043 528.306C885.769 528.306 896.806 534.778 896.806 550.951V597.344H878.908V556.061C879.077 547.32 874.926 540.835 866.755 540.835C858.701 540.835 852.086 546.23 852.086 558.629V597.331H834.357V530.07ZM963.782 597.357L936.597 558.785L961.201 530.07H982.186L956.662 558.111L986.738 597.344L963.782 597.357ZM918.44 499.993H936.079V597.357H918.44V499.993ZM1082.99 497.84C1106.57 498.112 1121.61 507.01 1121.61 530.329H1101.62C1101.62 517.788 1093.99 512.275 1083.36 512.275C1064.44 512.275 1056.28 529.927 1056.28 549.343C1056.28 580.211 1074.43 591.274 1102.03 582.909V559.978H1082.71V545.167H1121.05V593.842C1107.98 597.746 1098.14 599.627 1084.93 599.51C1054.21 599.225 1036.85 582.377 1036.72 549.071C1036.59 517.528 1056.67 497.568 1082.99 497.84ZM1140.38 597.357V529.655H1158.11V541.808C1161.75 532.768 1169.4 528.189 1180.14 529.396V544.35C1166.54 542.884 1158.11 549.615 1158.11 562.559V597.357H1140.38ZM1256.86 563.221C1256.86 582.52 1247.92 599.225 1222.63 599.225C1202.04 599.225 1188.96 584.945 1188.96 563.221C1188.96 544.077 1200.61 528.047 1222.63 528.047C1245.46 528.047 1256.86 544.077 1256.86 563.221ZM1238.44 563.221C1238.44 549.213 1233.66 540.446 1222.63 540.446C1213.84 540.446 1207.48 547.462 1207.35 563.221C1207.35 578.888 1213.57 586.955 1222.63 586.955C1232.65 586.955 1238.44 578.888 1238.44 563.221ZM1334.07 597.357H1316.47L1316.31 586.294C1313.33 595.061 1305.17 599.523 1295.06 599.523C1283.12 599.523 1271.88 591.962 1271.75 573.882V530.07H1289.63V571.327C1289.48 581.041 1293.11 586.424 1301.92 586.566C1309.82 586.566 1316.3 581.858 1316.3 568.772V530.083H1334.06L1334.07 597.357ZM1419.06 563.921C1418.93 582.649 1409.73 600.055 1390.03 600.055C1381.5 600.055 1375.9 597.214 1370.76 591.417V623.919H1352.85V531.159H1370.76V540.731C1375.25 531.951 1383.46 529.551 1391.07 529.551C1410.24 529.538 1419.31 546.243 1419.06 563.921ZM1401.17 565.387C1401.33 553.39 1398.46 542.067 1385.52 542.067C1373.59 541.924 1369.68 555.011 1369.68 565.529C1369.68 576.32 1372.55 588.045 1385.23 588.045C1397.43 588.045 1401.04 575.762 1401.17 565.387Z" fill="white"/>
</svg>
