<!-- Generated by IcoMoon.io -->
<svg version="1.1" xmlns="http://www.w3.org/2000/svg" width="1024" height="1024" viewBox="0 0 1024 1024" fill="#232323">
<title></title>
<g id="icomoon-ignore">
</g>
<path d="M469.333 170.667c-164.949 0-298.667 133.718-298.667 298.667s133.718 298.667 298.667 298.667c164.949 0 298.667-133.717 298.667-298.667s-133.717-298.667-298.667-298.667zM85.333 469.333c0-212.077 171.923-384 384-384 212.079 0 384 171.923 384 384 0 212.079-171.921 384-384 384-212.077 0-384-171.921-384-384z"></path>
<path d="M680.23 680.23c16.661-16.661 43.678-16.661 60.339 0l185.6 185.6c16.661 16.661 16.661 43.678 0 60.339s-43.678 16.661-60.339 0l-185.6-185.6c-16.661-16.661-16.661-43.678 0-60.339z"></path>
</svg>
